<svg xmlns="http://www.w3.org/2000/svg" width="45" height="45" viewBox="0 0 45 45">
  <g id="Our_Students_Speak_Inverted_Commas1" data-name="Our Students Speak Inverted Commas1" transform="translate(-0.358 -0.011)">
    <g id="Ellipse_11" data-name="Ellipse 11" transform="translate(0.358 0.011)" fill="#c42c40" stroke="#fff" stroke-width="1">
      <circle cx="22.5" cy="22.5" r="22.5" stroke="none"/>
      <circle cx="22.5" cy="22.5" r="22" fill="none"/>
    </g>
    <g id="inverted-commas-svgrepo-com" transform="translate(13.056 15.639)">
      <path id="Path_251" data-name="Path 251" d="M8.43,33.578H3.777c.08-3.391,1.041-3.776,2.25-3.886l.466-.058V25.905l-.537.029a5.813,5.813,0,0,0-4.485,1.81C.45,29,0,31.06,0,34.218V40.07H8.43Z" transform="translate(10.756 -25.905)" fill="#fff"/>
      <path id="Path_252" data-name="Path 252" d="M119.43,40.07V33.578h-4.591c.08-3.391,1.01-3.776,2.218-3.886l.435-.058V25.905l-.506.029a5.846,5.846,0,0,0-4.5,1.81C111.465,29,111,31.06,111,34.218V40.07Z" transform="translate(-111 -25.905)" fill="#fff"/>
    </g>
  </g>
</svg>
